HIERARCHY
ROOT Hips
{
	OFFSET 0.000000 0.000000 0.000000
	CHANNELS 6 Xposition Yposition Zposition Xrotation Yrotation Zrotation
	JOINT LeftUpLeg_virtual
	{
		OFFSET 0.000000 0.000000 0.000000
		CHANNELS 3 Xrotation Yrotation Zrotation
		JOINT LeftUpLeg
		{
			OFFSET 15.427100 -6.655098 0.678600
			CHANNELS 3 Xrotation Yrotation Zrotation
			JOINT LeftLeg
			{
				OFFSET 4.081073 -39.591068 13.024000
				CHANNELS 3 Xrotation Yrotation Zrotation
				JOINT LeftFoot
				{
					OFFSET -4.081074 -37.707932 -15.979700
					CHANNELS 3 Xrotation Yrotation Zrotation
					JOINT LeftToeBase
					{
						OFFSET 5.346399 -15.068900 20.645000
						CHANNELS 3 Xrotation Yrotation Zrotation
						JOINT LeftToe_End
						{
							OFFSET 2.754700 0.931300 11.300900
							CHANNELS 3 Xrotation Yrotation Zrotation
							End Site
							{
								OFFSET 0 0 0
							}
						}
					}
				}
			}
		}
	}
	JOINT RightUpLeg_virtual
	{
		OFFSET 0.000000 0.000000 0.000000
		CHANNELS 3 Xrotation Yrotation Zrotation
		JOINT RightUpLeg
		{
			OFFSET -15.569500 -6.655098 0.678600
			CHANNELS 3 Xrotation Yrotation Zrotation
			JOINT RightLeg
			{
				OFFSET -4.081825 -39.591045 13.023800
				CHANNELS 3 Xrotation Yrotation Zrotation
				JOINT RightFoot
				{
					OFFSET 4.081824 -37.707954 -15.979600
					CHANNELS 3 Xrotation Yrotation Zrotation
					JOINT RightToeBase
					{
						OFFSET -5.346400 -15.068900 20.645000
						CHANNELS 3 Xrotation Yrotation Zrotation
						JOINT RightToe_End
						{
							OFFSET -2.754700 0.931300 11.300900
							CHANNELS 3 Xrotation Yrotation Zrotation
							End Site
							{
								OFFSET 0 0 0
							}
						}
					}
				}
			}
		}
	}
	JOINT Spine_virtual
	{
		OFFSET 0.000000 0.000000 0.000000
		CHANNELS 3 Xrotation Yrotation Zrotation
		JOINT Spine
		{
			OFFSET -0.279200 12.230698 -2.892100
			CHANNELS 3 Xrotation Yrotation Zrotation
			JOINT Spine1
			{
				OFFSET -0.232667 10.192268 -1.242267
				CHANNELS 3 Xrotation Yrotation Zrotation
				JOINT Spine1_split
				{
					OFFSET -0.232667 10.192268 -1.242267
					CHANNELS 3 Xrotation Yrotation Zrotation
					JOINT Spine2
					{
						OFFSET -0.232667 10.192268 -1.242267
						CHANNELS 3 Xrotation Yrotation Zrotation
						JOINT Neck_virtual
						{
							OFFSET 0.000000 0.000000 0.000000
							CHANNELS 3 Xrotation Yrotation Zrotation
							JOINT Neck
							{
								OFFSET -0.418800 17.814194 8.416900
								CHANNELS 3 Xrotation Yrotation Zrotation
								JOINT Head
								{
									OFFSET 0.000000 7.031097 3.806800
									CHANNELS 3 Xrotation Yrotation Zrotation
									JOINT HeadTop_End
									{
										OFFSET 0.000000 24.646606 12.978600
										CHANNELS 3 Xrotation Yrotation Zrotation
										End Site
										{
											OFFSET 0 0 0
										}
									}
								}
							}
						}
						JOINT LeftShoulder_virtual
						{
							OFFSET 0.000000 0.000000 0.000000
							CHANNELS 3 Xrotation Yrotation Zrotation
							JOINT LeftShoulder
							{
								OFFSET 8.476499 7.247704 -3.868750
								CHANNELS 3 Xrotation Yrotation Zrotation
								JOINT LeftShoulder_split
								{
									OFFSET 8.476499 7.247704 -3.868750
									CHANNELS 3 Xrotation Yrotation Zrotation
									JOINT LeftArm
									{
										OFFSET 9.308998 -2.777710 0.208600
										CHANNELS 3 Xrotation Yrotation Zrotation
										JOINT LeftForeArm
										{
											OFFSET 29.972298 0.000000 0.000000
											CHANNELS 3 Xrotation Yrotation Zrotation
											JOINT LeftHand
											{
												OFFSET 26.026505 0.000000 0.000000
												CHANNELS 3 Xrotation Yrotation Zrotation
												End Site
												{
													OFFSET 0 0 0
												}
											}
										}
									}
								}
							}
						}
						JOINT RightShoulder_virtual
						{
							OFFSET 0.000000 0.000000 0.000000
							CHANNELS 3 Xrotation Yrotation Zrotation
							JOINT RightShoulder
							{
								OFFSET -7.570500 7.247704 -3.868750
								CHANNELS 3 Xrotation Yrotation Zrotation
								JOINT RightShoulder_split
								{
									OFFSET -7.570500 7.247704 -3.868750
									CHANNELS 3 Xrotation Yrotation Zrotation
									JOINT RightArm
									{
										OFFSET -9.308998 -2.777710 0.208500
										CHANNELS 3 Xrotation Yrotation Zrotation
										JOINT RightForeArm
										{
											OFFSET -29.972300 0.000000 0.000000
											CHANNELS 3 Xrotation Yrotation Zrotation
											JOINT RightHand
											{
												OFFSET -26.026505 0.000000 0.000000
												CHANNELS 3 Xrotation Yrotation Zrotation
												End Site
												{
													OFFSET 0 0 0
												}
											}
										}
									}
								}
							}
						}
					}
				}
			}
		}
	}
}
MOTION
Frames: 8
Frame Time: 0.03333333
4.754962 95.352859 -13.930004 0.000000 0.000000 0.000000 -1.353037 9.563617 4.250299 0.016822 17.969338 5.650859 9.258807 4.088108 0.374738 -5.655090 2.978271 -11.953304 1.664708 -2.601039 -0.335582 0.000000 0.000000 0.000000 -0.758738 10.672819 3.982253 1.769393 -7.095885 -5.972782 9.928385 0.125720 0.774164 -14.062390 -13.288826 13.448577 7.262596 3.877913 -10.028641 0.000000 0.000000 0.000000 -3.285712 14.894448 3.828157 2.733628 -4.101479 -2.009466 1.329643 -0.561724 0.529526 0.132193 0.159844 -0.057912 0.000000 0.000000 0.000000 1.269892 2.000189 0.184703 1.059086 6.421215 4.278370 2.880748 -13.231092 -1.765319 0.000000 0.000000 0.000000 0.137758 0.760211 -0.276792 1.075554 -1.371790 -17.359879 3.522214 -3.541635 -0.922090 1.255052 -6.031677 -32.593420 2.188076 -59.222207 -0.204470 0.000000 0.000000 0.000000 1.380440 0.933353 -0.021495 -2.111809 2.325223 21.605581 -1.573819 -2.303601 0.518213 -0.964503 5.849768 54.299485 2.522200 11.716281 2.421911 0.000000 0.000000 0.000000 
4.782588 95.356865 -13.863605 0.000000 0.000000 0.000000 -1.367654 9.626347 4.263638 0.006884 18.050949 5.654872 9.216629 4.096202 0.374939 -5.632863 2.964025 -11.950049 1.681780 -2.593294 -0.373015 0.000000 0.000000 0.000000 -0.767320 10.729702 3.998176 1.823829 -7.056795 -6.004932 9.918476 0.130347 0.775347 -14.059846 -13.262428 13.480306 7.180886 3.888852 -10.050939 0.000000 0.000000 0.000000 -3.345747 14.914852 3.844629 2.751166 -4.103814 -1.992839 1.299559 -0.544850 0.543694 0.130366 0.163509 -0.062641 0.000000 0.000000 0.000000 1.286463 2.016484 0.201647 1.047226 6.393606 4.277870 2.911935 -13.374002 -1.819061 0.000000 0.000000 0.000000 0.105445 0.784708 -0.283894 1.117599 -1.343601 -17.351018 3.377636 -3.700230 -0.928740 1.394706 -5.994951 -32.530057 2.153608 -59.226141 -0.250669 0.000000 0.000000 0.000000 1.350933 0.948908 -0.013955 -2.100571 2.180873 21.513499 -1.880902 -2.360019 0.582767 -0.955082 6.080988 53.848511 2.556147 11.094450 2.505867 0.000000 0.000000 0.000000 
4.827574 95.363899 -13.818714 0.000000 0.000000 0.000000 -1.382852 9.788971 4.297610 0.007282 18.093948 5.637055 9.140778 4.082649 0.354694 -5.593205 2.906974 -11.918433 1.691181 -2.576791 -0.380532 0.000000 0.000000 0.000000 -0.799100 10.870067 4.033409 1.946838 -7.099549 -6.044247 9.889403 0.112174 0.784124 -14.097973 -13.253935 13.513400 7.099387 3.905813 -10.033941 0.000000 0.000000 0.000000 -3.403714 15.046135 3.879001 2.788782 -4.111172 -1.953472 1.251098 -0.521054 0.513270 0.110289 0.171402 -0.062062 0.000000 0.000000 0.000000 1.267926 2.029453 0.177769 1.004413 6.391172 4.341290 2.967287 -13.327723 -1.722359 0.000000 0.000000 0.000000 0.045565 0.812244 -0.340100 1.189074 -1.238793 -17.258220 3.228169 -3.848926 -0.947309 1.451678 -5.984206 -32.481753 2.344211 -59.226824 -0.099074 0.000000 0.000000 0.000000 1.292462 0.965173 -0.040661 -2.035729 2.155771 21.237319 -2.114031 -2.302385 0.699948 -0.822425 6.249930 53.472257 2.415939 10.570782 2.648937 0.000000 0.000000 0.000000 
4.891171 95.372223 -13.799088 0.000000 0.000000 0.000000 -1.402826 10.031144 4.347260 0.005601 18.092797 5.593371 9.059464 4.049484 0.319766 -5.547851 2.813001 -11.853541 1.732700 -2.551917 -0.359488 0.000000 0.000000 0.000000 -0.840053 11.078861 4.081645 2.109612 -7.212907 -6.101928 9.856891 0.074268 0.807253 -14.164953 -13.261542 13.552156 7.024898 3.928370 -9.985638 0.000000 0.000000 0.000000 -3.455129 15.268160 3.922497 2.852181 -4.125748 -1.892211 1.192900 -0.489617 0.444502 0.091809 0.180720 -0.057865 0.000000 0.000000 0.000000 1.220051 2.042363 0.119205 0.926468 6.420328 4.459340 3.029202 -13.092796 -1.498933 0.000000 0.000000 0.000000 -0.039663 0.843584 -0.434337 1.277376 -1.067722 -17.095923 3.122642 -3.978386 -0.917933 1.437218 -5.979145 -32.461533 2.759039 -59.214612 0.249193 0.000000 0.000000 0.000000 1.216785 0.986128 -0.100476 -1.928538 2.218419 20.789602 -2.246241 -2.245055 0.856003 -0.562543 6.347711 53.230584 2.107893 10.390477 2.828255 0.000000 0.000000 0.000000 
4.961200 95.375427 -13.802380 0.000000 0.000000 0.000000 -1.423956 10.336684 4.410029 -0.012913 18.038540 5.525164 8.992671 4.000268 0.282674 -5.514992 2.693577 -11.746645 1.834849 -2.517047 -0.318597 0.000000 0.000000 0.000000 -0.876525 11.346538 4.137051 2.284290 -7.379697 -6.182815 9.835943 0.024294 0.849169 -14.245850 -13.273651 13.606325 6.946702 3.957978 -9.917757 0.000000 0.000000 0.000000 -3.491194 15.559395 3.966655 2.946916 -4.151202 -1.811350 1.135261 -0.449259 0.347762 0.086502 0.185192 -0.050308 0.000000 0.000000 0.000000 1.156754 2.064175 0.033236 0.791595 6.478848 4.606954 3.040416 -12.687209 -1.206443 0.000000 0.000000 0.000000 -0.131029 0.876438 -0.548464 1.369842 -0.855180 -16.873282 3.031994 -4.117731 -0.848274 1.364112 -5.964204 -32.483342 3.371020 -59.188213 0.768185 0.000000 0.000000 0.000000 1.137177 1.013176 -0.185530 -1.796330 2.345894 20.171323 -2.349469 -2.320125 1.032610 -0.054081 6.394216 53.121766 1.653190 10.891263 3.020463 0.000000 0.000000 0.000000 
5.034202 95.371475 -13.829575 0.000000 0.000000 0.000000 -1.436548 10.683232 4.479999 -0.046527 17.922462 5.433912 8.943013 3.935153 0.255924 -5.495931 2.559287 -11.600653 1.968300 -2.470033 -0.258459 0.000000 0.000000 0.000000 -0.909830 11.660083 4.195115 2.448737 -7.583977 -6.286512 9.833741 -0.030437 0.911277 -14.330435 -13.279236 13.673651 6.871079 3.995190 -9.839316 0.000000 0.000000 0.000000 -3.516684 15.882420 4.012692 3.076912 -4.192167 -1.714342 1.083510 -0.399179 0.239377 0.094721 0.182406 -0.041334 0.000000 0.000000 0.000000 1.086382 2.096705 -0.069394 0.576970 6.560875 4.762758 2.956549 -12.161435 -0.900980 0.000000 0.000000 0.000000 -0.210330 0.913534 -0.662502 1.457022 -0.619779 -16.601559 2.937400 -4.292642 -0.757178 1.251261 -5.924538 -32.567315 4.139304 -59.158242 1.420605 0.000000 0.000000 0.000000 1.065811 1.045453 -0.283255 -1.647292 2.500186 19.404721 -2.417563 -2.496528 1.247478 0.836751 6.454157 53.181492 1.097824 12.361261 3.212725 0.000000 0.000000 0.000000 
5.108922 95.362808 -13.864094 0.000000 0.000000 0.000000 -1.441458 11.064680 4.552948 -0.099368 17.742017 5.327123 8.902709 3.856491 0.245403 -5.463368 2.411771 -11.433923 2.083916 -2.408778 -0.180484 0.000000 0.000000 0.000000 -0.937123 12.007780 4.256156 2.593208 -7.829014 -6.410900 9.849051 -0.091323 0.993815 -14.411313 -13.277769 13.744269 6.810811 4.038080 -9.756778 0.000000 0.000000 0.000000 -3.527935 16.228859 4.064647 3.239916 -4.245051 -1.605648 1.040566 -0.338442 0.134764 0.102171 0.172616 -0.033236 0.000000 0.000000 0.000000 1.020881 2.143641 -0.176568 0.283378 6.645877 4.906127 2.750224 -11.595325 -0.640644 0.000000 0.000000 0.000000 -0.263403 0.956033 -0.758164 1.532384 -0.372045 -16.295009 2.849854 -4.439281 -0.698918 1.084682 -5.838802 -32.733466 4.992862 -59.130177 2.142504 0.000000 0.000000 0.000000 1.009114 1.083984 -0.382167 -1.485713 2.669470 18.506802 -2.433608 -2.612948 1.493494 2.168853 6.582769 53.395058 0.487600 14.980242 3.403690 0.000000 0.000000 0.000000 
5.182393 95.351212 -13.904961 0.000000 0.000000 0.000000 -1.435741 11.468983 4.629152 -0.180478 17.502320 5.205746 8.870044 3.774964 0.252489 -5.384295 2.253471 -11.241642 2.163844 -2.334351 -0.100845 0.000000 0.000000 0.000000 -0.952570 12.384553 4.323902 2.706301 -8.123731 -6.550545 9.874406 -0.157157 1.094005 -14.480192 -13.267746 13.809557 6.758164 4.086238 -9.672606 0.000000 0.000000 0.000000 -3.520412 16.584703 4.128131 3.427438 -4.302555 -1.496423 1.010662 -0.266639 0.045162 0.108075 0.157351 -0.026730 0.000000 0.000000 0.000000 0.979415 2.201596 -0.277326 -0.072043 6.706516 5.025351 2.419858 -11.103289 -0.460976 0.000000 0.000000 0.000000 -0.278629 1.002551 -0.823740 1.588641 -0.122910 -15.961192 2.792210 -4.508762 -0.708521 0.833740 -5.717474 -32.994738 5.876965 -59.121045 2.885405 0.000000 0.000000 0.000000 0.975581 1.123972 -0.471388 -1.315683 2.849487 17.523298 -2.417089 -2.645717 1.775762 3.931109 6.868661 53.783061 -0.126147 18.710012 3.594821 0.000000 0.000000 0.000000 
